<svg viewBox="0 0 25 30" xmlns="http://www.w3.org/2000/svg" xmlns:xlink="http://www.w3.org/1999/xlink" width="25.000000" height="30.000000" fill="none" customFrame="#000000">
	<rect id="icon_eat" width="25.000000" height="30.000000" x="0.000000" y="0.000000" fill="rgb(255,255,255)" fill-opacity="0" />
	<path id="Knife" d="M18.6173 0.0761497C18.991 -0.0786313 19.4211 0.00692445 19.7071 0.292922C20.6156 1.20142 21.8038 3.17065 22.7659 6.21082C23.7373 9.28039 24.5 13.5081 24.5 19C24.5 19.5523 24.0523 20 23.5 20L20 20L20 29C20 29.5523 19.5523 30 19 30C18.4477 30 18 29.5523 18 29L18 1.00003C18 0.595567 18.2436 0.230931 18.6173 0.0761497ZM20 18L22.4911 18C22.4053 13.1836 21.7051 9.48755 20.8591 6.81424C20.5807 5.93457 20.2885 5.1715 20 4.51895L20 18Z" fill="rgb(255,255,255)" fill-rule="evenodd" />
	<path id="Fork" d="M1.5 0C2.05228 0 2.5 0.447715 2.5 1L2.5 6.5C2.5 7.05686 2.69203 7.81518 3.20088 8.41656C3.55978 8.84073 4.11806 9.23736 5 9.4097L5 1C5 0.447715 5.44772 0 6 0C6.55228 0 7 0.447715 7 1L7 9.40968C7.88191 9.23732 8.44023 8.84071 8.79912 8.41656C9.30797 7.81518 9.5 7.05686 9.5 6.5L9.5 1C9.5 0.447715 9.94771 0 10.5 0C11.0523 0 11.5 0.447715 11.5 1L11.5 6.5C11.5 7.44314 11.192 8.68482 10.3259 9.70844C9.58634 10.5825 8.49252 11.2344 7 11.4352L7 29C7 29.5523 6.55228 30 6 30C5.44772 30 5 29.5523 5 29L5 11.4353C3.50745 11.2344 2.41369 10.5825 1.6741 9.70844C0.807973 8.68482 0.5 7.44314 0.5 6.5L0.5 1C0.5 0.447715 0.947715 0 1.5 0Z" fill="rgb(255,255,255)" fill-rule="evenodd" />
</svg>
