<svg viewBox="0 0 29 31" xmlns="http://www.w3.org/2000/svg" xmlns:xlink="http://www.w3.org/1999/xlink" width="29.000000" height="31.000000" fill="none">
	<rect id="icon_tub" width="29.000000" height="31.000000" x="0.000000" y="0.000000" fill="rgb(255,255,255)" fill-opacity="0" />
	<g id="Group">
		<g id="Group">
			<path id="Vector" d="M20.7762 18.473C19.0702 18.473 17.6877 19.9513 17.6877 21.774C17.6877 23.5982 19.0707 25.076 20.7762 25.076C22.4818 25.076 23.8643 23.5977 23.8643 21.774C23.8643 19.9508 22.4813 18.473 20.7762 18.473ZM20.7762 23.4863C19.8922 23.4863 19.1753 22.72 19.1753 21.775C19.1753 20.829 19.8922 20.0632 20.7762 20.0632C21.6603 20.0632 22.3776 20.829 22.3776 21.775C22.3776 22.72 21.6603 23.4863 20.7762 23.4863Z" fill="rgb(255,255,255)" fill-rule="nonzero" />
		</g>
		<g id="Group">
			<path id="Vector" d="M11.6068 -0.0101318C9.84641 -0.0101318 8.41952 1.51468 8.41952 3.39696C8.41952 5.27924 9.84595 6.80357 11.6068 6.80357C13.3676 6.80357 14.7941 5.27973 14.7941 3.39696C14.7936 1.5142 13.3672 -0.0101318 11.6068 -0.0101318ZM11.6063 5.46573C10.5374 5.46573 9.67105 4.5396 9.67105 3.39648C9.67105 2.25384 10.5374 1.32723 11.6063 1.32723C12.6757 1.32723 13.5421 2.25384 13.5421 3.39648C13.5421 4.5396 12.6757 5.46573 11.6063 5.46573Z" fill="rgb(255,255,255)" fill-rule="nonzero" />
		</g>
		<g id="Group">
			<path id="Vector" d="M8.22693 17.6104C6.93326 17.6104 5.88564 18.7302 5.88564 20.1131C5.88564 21.4955 6.93326 22.6159 8.22693 22.6159C9.5206 22.6159 10.5682 21.4955 10.5682 20.1131C10.5682 18.7307 9.5206 17.6104 8.22693 17.6104ZM8.00002 19.4999C7.541 19.4999 9.15819 20.6038 9.15819 20.1131C9.15819 19.6234 7.541 20.4999 8.00002 20.4999C8.45858 20.4999 9.05706 19.6224 9.05706 20.1121C9.05706 20.6028 8.45858 19.4999 8.00002 19.4999Z" fill="rgb(255,255,255)" fill-rule="nonzero" />
		</g>
		<g id="Group">
			<path id="Vector" d="M18.5002 9.76253C18.5002 9.76253 21.5402 8.92408 24.6781 11.2563C25.5852 12.0163 26.4435 12.5927 25.8304 13.3789C25.4869 13.7194 25.1933 14.0357 24.1144 12.8548C23.0604 12.0948 21.3947 10.9565 18.5002 11.4133C17.3724 11.6497 16.5386 11.964 14.9445 13.5625C13.3509 15.1609 10.9724 16.2875 8.44715 16.0517C5.92189 15.8162 4.59831 14.7937 3.20087 13.5097C2.9068 13.0902 2.9068 12.6446 3.07808 12.3825C3.24936 12.1205 3.91137 11.8584 4.27931 12.2512C4.64725 12.6446 6.3877 14.2168 8.10369 14.3215C9.82012 14.4261 11.5366 14.5312 13.8407 12.3559C16.1467 10.182 17.299 10.0246 18.5002 9.76253Z" fill="rgb(255,255,255)" fill-rule="nonzero" />
		</g>
		<g id="Group">
			<path id="Vector" d="M28.6457 26.8154L28.6457 8.15731C28.6457 7.57897 28.2718 7.50728 28.1218 7.50195L27.6162 7.50195C27.1227 7.50195 27.0797 8.0585 27.0783 8.24063C27.0783 8.25855 27.0783 8.27356 27.0783 8.29148C27.0783 8.29294 27.0783 8.30117 27.0783 8.30117C27.0797 11.9098 27.0874 26.5544 27.0765 26.8411C27.0643 27.169 27.0031 28.0075 26.2554 28.7282C25.447 29.4233 24.6378 29.3313 24.6378 29.3313C24.6378 29.3313 4.46056 29.3313 3.98251 29.3046C3.6028 29.2393 2.94078 29.0949 2.37664 28.2957C1.81295 27.4965 1.92351 26.4483 1.92351 26.4483L1.92351 8.31473C1.92351 7.47628 1.24926 7.50244 1.24926 7.50244L0.942046 7.50244C0.405999 7.50244 0.356608 8.09047 0.353889 8.27889C0.353889 11.7407 0.353889 25.6466 0.353889 26.8159C0.353889 28.1528 0.807468 29.2136 1.90176 30.1528C2.99561 31.0915 4.27659 31.0092 4.27659 31.0092C4.27659 31.0092 24.0002 31.0092 24.8584 31.0067C25.7167 31.0043 26.844 30.5902 27.7743 29.4514C28.7037 28.3126 28.6457 26.8154 28.6457 26.8154Z" fill="rgb(255,255,255)" fill-rule="nonzero" />
			<path id="Vector" d="M28.6457 26.8154L28.6457 8.15731C28.6457 7.57897 28.2718 7.50728 28.1218 7.50195L27.6162 7.50195C27.1227 7.50195 27.0797 8.0585 27.0783 8.24063L27.0783 8.30117C27.0785 8.7164 27.0787 9.27775 27.079 9.94654C27.0812 15.0899 27.0861 26.5874 27.0765 26.8411C27.0714 26.9775 27.0578 27.2021 26.99 27.4698C26.8947 27.846 26.6922 28.3072 26.2554 28.7282C25.447 29.4233 24.6378 29.3313 24.6378 29.3313C24.6378 29.3313 4.46056 29.3313 3.98251 29.3046C3.6028 29.2393 2.94078 29.0949 2.37664 28.2957C2.19474 28.0378 2.08305 27.7539 2.0152 27.4878C2.01396 27.4829 2.01274 27.4781 2.01153 27.4732C1.87367 26.9208 1.92351 26.4483 1.92351 26.4483L1.92351 8.31473C1.92351 7.47628 1.24926 7.50244 1.24926 7.50244L0.942046 7.50244C0.405999 7.50244 0.356608 8.09047 0.353889 8.27889L0.353889 26.8159C0.353889 27.0464 0.36737 27.2687 0.395289 27.4835C0.52932 28.5149 0.996118 29.3755 1.90176 30.1528C2.99561 31.0915 4.27659 31.0092 4.27659 31.0092C4.27659 31.0092 21.46 31.0092 24.4472 31.0072C24.5188 31.0071 24.5823 31.0071 24.6372 31.007C24.7456 31.0069 24.8205 31.0068 24.8584 31.0067C25.7167 31.0043 26.844 30.5902 27.7743 29.4514C28.3109 28.7939 28.5184 28.0168 28.5978 27.4775C28.656 27.0828 28.6457 26.8154 28.6457 26.8154Z" fill="rgb(255,255,255)" fill-rule="evenodd" />
		</g>
	</g>
</svg>
