<svg xmlns="http://www.w3.org/2000/svg">

  <symbol id="mail" viewBox="0 0 19 14">
    <line x1="0.65" y1="5.29999" x2="0.65" y2="13.3" stroke="currentColor" stroke-width="1.3" />
    <line x1="17.65" y1="5.29999" x2="17.65" y2="13.3" stroke="currentColor" stroke-width="1.3" />
    <line y1="12.65" x2="18" y2="12.65" stroke="currentColor" stroke-width="1.3" />
    <line y1="0.649988" x2="18" y2="0.649988" stroke="currentColor" stroke-width="1.3" />
    <path d="M0.650391 2.4826V0.950378L17.3496 0.950378V2.4826L9 8.97675L0.650391 2.4826Z" stroke="currentColor"
      stroke-width="1.3" />
  </symbol>

  <symbol id="phone" viewBox="0 0 20 20">
    <path
      d="M17.9 9.43231H9.39999V10.6364H17.9L15.8 12.7437L16.7 13.6468L19.8 10.5361C19.8974 10.4058 19.95 10.2474 19.95 10.0845C19.95 9.92171 19.8974 9.76327 19.8 9.633L16.7 6.52234L15.8 7.42543L17.9 9.43231Z"
      fill="currentColor" />
    <path
      d="M8.10001 19.4667V13.2454C8.08846 13.0896 8.02154 12.9431 7.91142 12.8326C7.80131 12.7221 7.65531 12.6549 7.50001 12.6434H3.10001C3.10516 12.9611 3.23325 13.2644 3.45718 13.4891C3.68112 13.7138 3.98336 13.8423 4.30001 13.8475H6.80001V18.8647H3.10001C2.86326 18.8796 2.62591 18.8471 2.40176 18.7692C2.17762 18.6912 1.97115 18.5693 1.79436 18.4106C1.61757 18.2519 1.47399 18.0595 1.37196 17.8446C1.26992 17.6297 1.21148 17.3966 1.20001 17.1588V3.11068C1.19181 2.64637 1.36516 2.19731 1.68292 1.8597C2.00069 1.52208 2.43758 1.32278 2.90001 1.30449H6.80001V6.32169H4.40001C4.08336 6.32685 3.78112 6.45538 3.55718 6.68008C3.33325 6.90479 3.20516 7.20807 3.20001 7.52581H7.60001C7.75531 7.51422 7.90131 7.44707 8.01142 7.33658C8.12154 7.22608 8.18846 7.07959 8.20001 6.92375V0.602082C8.15232 0.445405 8.06117 0.305587 7.93721 0.198972C7.81325 0.0923576 7.66161 0.0233508 7.50001 1.8294e-05H3.10001C2.70599 -0.0133808 2.31321 0.0512819 1.94411 0.190309C1.57501 0.329336 1.23684 0.540002 0.948933 0.81026C0.661026 1.08052 0.42903 1.40507 0.266207 1.76536C0.103385 2.12564 0.01293 2.5146 1.46306e-05 2.90999V16.8578C-0.0289644 17.2568 0.0246504 17.6575 0.157487 18.0348C0.290324 18.412 0.499509 18.7575 0.771886 19.0497C1.04426 19.3419 1.37394 19.5743 1.74019 19.7324C2.10643 19.8905 2.50132 19.9709 2.90001 19.9685H7.50001C7.5735 19.9835 7.64943 19.9818 7.72216 19.9634C7.7949 19.9451 7.86259 19.9105 7.92021 19.8623C7.97783 19.8141 8.02391 19.7536 8.05504 19.6851C8.08616 19.6166 8.10153 19.542 8.10001 19.4667Z"
      fill="currentColor" />
  </symbol>

  <symbol id="vkontakte" viewBox="0 0 22.1481 12.3635">
    <path
      d="M0 1.70091C0 1.07907 0.42312 0.743769 1.26936 0.694997L4.5303 0.713287C4.74916 0.713287 4.89506 0.804734 4.96801 0.987628C5.30359 1.9021 5.67929 2.69159 6.09512 3.35611C6.51094 4.02062 7.05443 4.78573 7.72559 5.65143C7.78395 5.76116 7.87879 5.81603 8.0101 5.81603C8.11223 5.81603 8.19248 5.77335 8.25084 5.688L8.3165 5.48682L8.33838 2.32275C8.33838 2.10328 8.27637 1.95697 8.15236 1.88381C8.02834 1.81065 7.79854 1.75578 7.46296 1.7192C7.20034 1.68263 7.06902 1.5485 7.06902 1.31684C7.06902 1.26807 7.07632 1.23149 7.09091 1.2071C7.39731 0.41456 8.27273 0.0182894 9.71717 0.0182894L10.9428 0C11.4972 0 11.9568 0.115833 12.3215 0.347499C12.6863 0.579164 12.8687 0.944952 12.8687 1.44486L12.8687 5.59656C12.9708 5.65752 13.0657 5.688 13.1532 5.688C13.3721 5.688 13.5617 5.57827 13.7222 5.35879C15.3272 3.48108 16.1953 2.22521 16.3266 1.59118C16.3266 1.57898 16.3412 1.5485 16.3704 1.49973C16.4725 1.31684 16.6403 1.15833 16.8737 1.02421C17.1072 0.890084 17.3114 0.798637 17.4865 0.749865C17.5449 0.72548 17.6105 0.713287 17.6835 0.713287L21.0758 0.713287L21.2946 0.731576C21.5864 0.731576 21.8126 0.847409 21.9731 1.07907C22.0314 1.15223 22.0716 1.23149 22.0934 1.31684C22.1153 1.40219 22.1299 1.48754 22.1372 1.57289C22.1445 1.65824 22.1481 1.70701 22.1481 1.7192L22.1481 1.84723C22.046 2.34714 21.787 2.88058 21.3712 3.44755C20.9554 4.01452 20.4265 4.62722 19.7845 5.28564C19.1425 5.94406 18.7413 6.3769 18.5808 6.58418C18.4495 6.7305 18.3838 6.86462 18.3838 6.98655C18.3838 7.0841 18.4422 7.19383 18.5589 7.31576L21.7542 10.681C21.9293 10.8761 22.0168 11.0895 22.0168 11.3211C22.0168 11.6016 21.8855 11.8332 21.6229 12.0161C21.3603 12.199 21.0466 12.3027 20.6818 12.3271L20.3098 12.3453L16.9832 12.3453C16.9686 12.3453 16.9394 12.3484 16.8956 12.3545C16.8519 12.3606 16.8227 12.3636 16.8081 12.3636C16.4871 12.3636 16.188 12.2478 15.9108 12.0161C15.8086 11.9186 15.1229 11.1992 13.8535 9.85799C13.7806 9.77264 13.6785 9.69338 13.5471 9.62023C13.4888 9.81531 13.4122 10.0957 13.3173 10.4615C13.2225 10.8273 13.1532 11.0895 13.1094 11.248L13.0438 11.5589C12.8979 11.9857 12.5915 12.2417 12.1246 12.3271L11.8182 12.3453L9.6734 12.3453C8.4624 12.3453 7.25505 11.882 6.05135 10.9554C4.84764 10.0287 3.76431 8.83073 2.80135 7.36148C1.83838 5.89224 0.941078 4.18218 0.109428 2.23131C0.0364759 2.0728 0 1.896 0 1.70091ZM13.1532 6.43787C12.8468 6.43787 12.5696 6.36776 12.3215 6.22754C12.0735 6.08732 11.9495 5.89528 11.9495 5.65143L11.9495 1.44486C11.9495 1.201 11.8765 1.02725 11.7306 0.923615C11.5847 0.819975 11.3294 0.768155 10.9646 0.768155L9.71717 0.804734C9.08979 0.804734 8.6156 0.896181 8.29461 1.07907C8.93659 1.33513 9.25758 1.74969 9.25758 2.32275L9.25758 5.54169C9.2284 5.84651 9.08249 6.09952 8.81987 6.3007C8.55724 6.50188 8.26543 6.60247 7.94445 6.60247C7.50673 6.60247 7.17116 6.42568 6.93771 6.07208C5.79966 4.63332 4.95342 3.26771 4.39899 1.97526L4.20202 1.49973L1.29125 1.48144C1.10157 1.48144 0.995791 1.49059 0.973906 1.50888C0.95202 1.52717 0.941078 1.57899 0.941078 1.66434C0.941078 1.77407 0.955668 1.8899 0.984849 2.01183L1.44444 3.03604C2.67003 5.68191 4.0014 7.7669 5.43855 9.29102C6.8757 10.8151 8.28732 11.5772 9.6734 11.5772L11.862 11.5772C11.9495 11.5772 12.0152 11.5559 12.0589 11.5132C12.1027 11.4705 12.1392 11.3882 12.1684 11.2663L12.2121 11.0834L12.6279 9.47391C12.7447 9.25444 12.8468 9.10812 12.9343 9.03496C13.0948 8.90084 13.2845 8.83378 13.5034 8.83378C13.8535 8.83378 14.211 9.01058 14.5758 9.36417L16.436 11.3394C16.5527 11.4979 16.6768 11.5772 16.8081 11.5772L20.4192 11.5772C20.8569 11.5772 21.0758 11.4857 21.0758 11.3029C21.0758 11.2419 21.0539 11.1809 21.0101 11.12L17.8367 7.80957C17.5887 7.55352 17.4646 7.27918 17.4646 6.98655C17.4646 6.69392 17.5814 6.41348 17.8148 6.14524C18.0045 5.90138 18.3729 5.49597 18.92 4.92899C19.4672 4.36202 19.945 3.83163 20.3535 3.33782C20.7621 2.844 21.032 2.39591 21.1633 1.99354L21.229 1.75578C21.2144 1.7314 21.2071 1.69177 21.2071 1.6369C21.2071 1.58203 21.1998 1.53631 21.1852 1.49973L17.7492 1.49973C17.5303 1.57289 17.3552 1.68262 17.2239 1.82894L17.0926 2.17644C16.7278 3.01775 15.7722 4.3163 14.2256 6.07208C13.9192 6.31594 13.5617 6.43787 13.1532 6.43787Z"
      fill="currentColor" />
  </symbol>

  <symbol id="instagram" viewBox="0 0 15.8438 15.8438">
    <path
      d="M7.92188 0C9.25521 0 10.3438 0.015625 11.1875 0.046875C11.9062 0.078125 12.5469 0.203125 13.1094 0.421875C13.651 0.630208 14.1198 0.932292 14.5156 1.32812C14.9115 1.72396 15.2135 2.19271 15.4219 2.73437C15.6406 3.29687 15.7656 3.9375 15.7969 4.65625C15.8281 5.5 15.8438 6.58854 15.8438 7.92187C15.8438 9.25521 15.8281 10.3437 15.7969 11.1875C15.7656 11.9062 15.6406 12.5469 15.4219 13.1094C15.2135 13.651 14.9115 14.1198 14.5156 14.5156C14.1198 14.9115 13.651 15.2135 13.1094 15.4219C12.5469 15.6406 11.9062 15.7656 11.1875 15.7969C10.3438 15.8281 9.25521 15.8437 7.92188 15.8437C6.58854 15.8437 5.5 15.8281 4.65625 15.7969C3.9375 15.7656 3.29688 15.6406 2.73438 15.4219C2.19271 15.2135 1.72396 14.9115 1.32812 14.5156C0.932292 14.1198 0.630208 13.651 0.421875 13.1094C0.203125 12.5469 0.078125 11.9062 0.046875 11.1875C0.015625 10.3437 0 9.25521 0 7.92187C0 6.58854 0.015625 5.5 0.046875 4.65625C0.078125 3.9375 0.203125 3.29687 0.421875 2.73437C0.630208 2.19271 0.932292 1.72396 1.32812 1.32812C1.72396 0.932292 2.19271 0.630208 2.73438 0.421875C3.29688 0.203125 3.9375 0.078125 4.65625 0.046875C5.5 0.015625 6.58854 0 7.92188 0ZM7.92188 1.03125C6.53646 1.03125 5.40625 1.04687 4.53125 1.07812C3.96875 1.09896 3.44792 1.19792 2.96875 1.375C2.21875 1.6875 1.6875 2.21875 1.375 2.96875C1.19792 3.44792 1.09896 3.96875 1.07812 4.53125C1.04688 5.40625 1.03125 6.53646 1.03125 7.92187C1.03125 9.30729 1.04688 10.4375 1.07812 11.3125C1.09896 11.875 1.19792 12.3958 1.375 12.875C1.6875 13.625 2.21875 14.1562 2.96875 14.4687C3.44792 14.6458 3.96875 14.7448 4.53125 14.7656C5.40625 14.7969 6.53646 14.8125 7.92188 14.8125C9.30729 14.8125 10.4375 14.7969 11.3125 14.7656C11.875 14.7448 12.3958 14.6458 12.875 14.4687C13.625 14.1562 14.1562 13.625 14.4688 12.875C14.6458 12.3958 14.7448 11.875 14.7656 11.3125C14.7969 10.4375 14.8125 9.30729 14.8125 7.92187C14.8125 6.53646 14.7969 5.40625 14.7656 4.53125C14.7448 3.96875 14.6458 3.44792 14.4688 2.96875C14.1562 2.21875 13.625 1.6875 12.875 1.375C12.3958 1.19792 11.875 1.09896 11.3125 1.07812C10.4375 1.04687 9.30729 1.03125 7.92188 1.03125ZM7.92188 11.0937C8.79688 11.0937 9.54427 10.7839 10.1641 10.1641C10.7839 9.54427 11.0938 8.79687 11.0938 7.92187C11.0938 7.04687 10.7839 6.29948 10.1641 5.67969C9.54427 5.0599 8.79688 4.75 7.92188 4.75C7.04688 4.75 6.29948 5.0599 5.67969 5.67969C5.0599 6.29948 4.75 7.04687 4.75 7.92187C4.75 8.79687 5.0599 9.54427 5.67969 10.1641C6.29948 10.7839 7.04688 11.0937 7.92188 11.0937ZM7.92188 3.85937C9.04688 3.85937 10.0052 4.25521 10.7969 5.04687C11.5885 5.83854 11.9844 6.79687 11.9844 7.92187C11.9844 9.04687 11.5885 10.0052 10.7969 10.7969C10.0052 11.5885 9.04688 11.9844 7.92188 11.9844C6.79688 11.9844 5.83854 11.5885 5.04688 10.7969C4.25521 10.0052 3.85938 9.04687 3.85938 7.92187C3.85938 6.79687 4.25521 5.83854 5.04688 5.04687C5.83854 4.25521 6.79688 3.85937 7.92188 3.85937ZM13.1094 3.70312C13.1094 3.96354 13.0156 4.1849 12.8281 4.36719C12.6406 4.54948 12.4115 4.64062 12.1406 4.64062C11.8802 4.64062 11.6589 4.54948 11.4766 4.36719C11.2943 4.1849 11.2031 3.96354 11.2031 3.70312C11.2031 3.43229 11.2943 3.20312 11.4766 3.01562C11.6589 2.82812 11.8802 2.73437 12.1406 2.73437C12.401 2.73437 12.6276 2.83073 12.8203 3.02344C13.013 3.21615 13.1094 3.44271 13.1094 3.70312Z"
      fill="currentColor" />
  </symbol>

  <symbol id="facebook" viewBox="0 0 11.1939 19.0767">
    <path
      d="M7.88334 0.550049C6.66776 0.550049 5.50197 1.02354 4.64243 1.86636C3.78289 2.70919 3.3 3.8523 3.3 5.04423L3.3 7.74074L0.550003 7.74074L0.550003 11.3361L3.3 11.3361L3.3 18.5268L6.96667 18.5268L6.96667 11.3361L9.71667 11.3361L10.6333 7.74074L6.96667 7.74074L6.96667 5.04423C6.96667 4.80584 7.06325 4.57722 7.23516 4.40866C7.40706 4.24009 7.64022 4.14539 7.88334 4.14539L10.6333 4.14539L10.6333 0.550049L7.88334 0.550049Z"
      stroke="currentColor" stroke-linecap="round" stroke-linejoin="round" stroke-width="1.10000002" fill="none" />
  </symbol>

  <symbol id="logo-html-academy" viewBox="0 0 27 34">
    <path
      d="M13.6426 0.0157537L13.5 0L0 1.40733L0 26.0129L13.5 34L27 26.0129L27 1.40733L13.6426 0.0157537ZM25.2344 25.0151L13.5 31.9573L1.76561 25.0151L1.76561 14.9293L13.4507 21.8451L13.4701 23.0984L5.45351 18.3548L5.44295 19.5801L13.4894 24.3885L13.5088 25.675L5.46408 20.9174L5.45351 22.1427L13.5 26.9511L21.6239 22.1182L21.6239 20.8929L21.6239 16.909L25.2432 14.7595L25.2344 25.0151ZM25.2344 13.4519L22.0147 15.3319L20.5325 16.2071L13.4666 12.0201L13.456 13.2454L19.4957 16.818L19.4429 16.8495L19.3126 16.9247L18.4536 17.4166L13.4666 14.4689L13.456 15.6942L17.3921 18.0222L16.4591 18.6314L16.438 18.6436L13.4666 16.902L13.456 18.1273L15.4029 19.2615L13.4155 20.4483L1.7973 13.5762L13.4349 6.61831L25.2344 13.4519ZM25.2344 12.2266L13.4401 5.31075L1.76561 12.2196L1.76561 2.9897L13.5 1.76442L25.2344 2.9897L25.2344 12.2266Z"
      fill="currentColor" />
  </symbol>

</svg>
