<svg width="16" height="16" viewBox="0 0 16 16" fill="none" xmlns="http://www.w3.org/2000/svg">
<path d="M7.92188 0C9.25521 0 10.3438 0.015625 11.1875 0.046875C11.9062 0.078125 12.5469 0.203125 13.1094 0.421875C13.651 0.630208 14.1198 0.932292 14.5156 1.32812C14.9115 1.72396 15.2135 2.19271 15.4219 2.73437C15.6406 3.29687 15.7656 3.9375 15.7969 4.65625C15.8281 5.5 15.8438 6.58854 15.8438 7.92187C15.8438 9.25521 15.8281 10.3437 15.7969 11.1875C15.7656 11.9062 15.6406 12.5469 15.4219 13.1094C15.2135 13.651 14.9115 14.1198 14.5156 14.5156C14.1198 14.9115 13.651 15.2135 13.1094 15.4219C12.5469 15.6406 11.9062 15.7656 11.1875 15.7969C10.3438 15.8281 9.25521 15.8437 7.92188 15.8437C6.58854 15.8437 5.5 15.8281 4.65625 15.7969C3.9375 15.7656 3.29688 15.6406 2.73438 15.4219C2.19271 15.2135 1.72396 14.9115 1.32812 14.5156C0.932292 14.1198 0.630208 13.651 0.421875 13.1094C0.203125 12.5469 0.078125 11.9062 0.046875 11.1875C0.015625 10.3437 0 9.25521 0 7.92187C0 6.58854 0.015625 5.5 0.046875 4.65625C0.078125 3.9375 0.203125 3.29687 0.421875 2.73437C0.630208 2.19271 0.932292 1.72396 1.32812 1.32812C1.72396 0.932292 2.19271 0.630208 2.73438 0.421875C3.29688 0.203125 3.9375 0.078125 4.65625 0.046875C5.5 0.015625 6.58854 0 7.92188 0ZM7.92188 1.03125C6.53646 1.03125 5.40625 1.04687 4.53125 1.07812C3.96875 1.09896 3.44792 1.19792 2.96875 1.375C2.21875 1.6875 1.6875 2.21875 1.375 2.96875C1.19792 3.44792 1.09896 3.96875 1.07812 4.53125C1.04688 5.40625 1.03125 6.53646 1.03125 7.92187C1.03125 9.30729 1.04688 10.4375 1.07812 11.3125C1.09896 11.875 1.19792 12.3958 1.375 12.875C1.6875 13.625 2.21875 14.1562 2.96875 14.4687C3.44792 14.6458 3.96875 14.7448 4.53125 14.7656C5.40625 14.7969 6.53646 14.8125 7.92188 14.8125C9.30729 14.8125 10.4375 14.7969 11.3125 14.7656C11.875 14.7448 12.3958 14.6458 12.875 14.4687C13.625 14.1562 14.1562 13.625 14.4688 12.875C14.6458 12.3958 14.7448 11.875 14.7656 11.3125C14.7969 10.4375 14.8125 9.30729 14.8125 7.92187C14.8125 6.53646 14.7969 5.40625 14.7656 4.53125C14.7448 3.96875 14.6458 3.44792 14.4688 2.96875C14.1562 2.21875 13.625 1.6875 12.875 1.375C12.3958 1.19792 11.875 1.09896 11.3125 1.07812C10.4375 1.04687 9.30729 1.03125 7.92188 1.03125ZM7.92188 11.0937C8.79688 11.0937 9.54427 10.7839 10.1641 10.1641C10.7839 9.54427 11.0938 8.79687 11.0938 7.92187C11.0938 7.04687 10.7839 6.29948 10.1641 5.67969C9.54427 5.0599 8.79688 4.75 7.92188 4.75C7.04688 4.75 6.29948 5.0599 5.67969 5.67969C5.0599 6.29948 4.75 7.04687 4.75 7.92187C4.75 8.79687 5.0599 9.54427 5.67969 10.1641C6.29948 10.7839 7.04688 11.0937 7.92188 11.0937ZM7.92188 3.85937C9.04688 3.85937 10.0052 4.25521 10.7969 5.04687C11.5885 5.83854 11.9844 6.79687 11.9844 7.92187C11.9844 9.04687 11.5885 10.0052 10.7969 10.7969C10.0052 11.5885 9.04688 11.9844 7.92188 11.9844C6.79688 11.9844 5.83854 11.5885 5.04688 10.7969C4.25521 10.0052 3.85938 9.04687 3.85938 7.92187C3.85938 6.79687 4.25521 5.83854 5.04688 5.04687C5.83854 4.25521 6.79688 3.85937 7.92188 3.85937ZM13.1094 3.70312C13.1094 3.96354 13.0156 4.1849 12.8281 4.36719C12.6406 4.54948 12.4115 4.64062 12.1406 4.64062C11.8802 4.64062 11.6589 4.54948 11.4766 4.36719C11.2943 4.1849 11.2031 3.96354 11.2031 3.70312C11.2031 3.43229 11.2943 3.20312 11.4766 3.01562C11.6589 2.82812 11.8802 2.73437 12.1406 2.73437C12.401 2.73437 12.6276 2.83073 12.8203 3.02344C13.013 3.21615 13.1094 3.44271 13.1094 3.70312Z" fill="#666666"/>
</svg>
