<svg width="20" height="21" viewBox="0 0 20 21" fill="none" xmlns="http://www.w3.org/2000/svg">
  <g clip-path="url(#clip0_153_253)">
    <path
      d="M17.9 9.43231H9.39999V10.6364H17.9L15.8 12.7437L16.7 13.6468L19.8 10.5361C19.8974 10.4058 19.95 10.2474 19.95 10.0845C19.95 9.92171 19.8974 9.76327 19.8 9.633L16.7 6.52234L15.8 7.42543L17.9 9.43231Z"
      fill="currentColor" />
    <path
      d="M8.10001 19.4667V13.2454C8.08846 13.0896 8.02154 12.9431 7.91142 12.8326C7.80131 12.7221 7.65531 12.6549 7.50001 12.6434H3.10001C3.10516 12.9611 3.23325 13.2644 3.45718 13.4891C3.68112 13.7138 3.98336 13.8423 4.30001 13.8475H6.80001V18.8647H3.10001C2.86326 18.8796 2.62591 18.8471 2.40176 18.7692C2.17762 18.6912 1.97115 18.5693 1.79436 18.4106C1.61757 18.2519 1.47399 18.0595 1.37196 17.8446C1.26992 17.6297 1.21148 17.3966 1.20001 17.1588V3.11068C1.19181 2.64637 1.36516 2.19731 1.68292 1.8597C2.00069 1.52208 2.43758 1.32278 2.90001 1.30449H6.80001V6.32169H4.40001C4.08336 6.32685 3.78112 6.45538 3.55718 6.68008C3.33325 6.90479 3.20516 7.20807 3.20001 7.52581H7.60001C7.75531 7.51422 7.90131 7.44707 8.01142 7.33658C8.12154 7.22608 8.18846 7.07959 8.20001 6.92375V0.602082C8.15232 0.445405 8.06117 0.305587 7.93721 0.198972C7.81325 0.0923576 7.66161 0.0233508 7.50001 1.8294e-05H3.10001C2.70599 -0.0133808 2.31321 0.0512819 1.94411 0.190309C1.57501 0.329336 1.23684 0.540002 0.948933 0.81026C0.661026 1.08052 0.42903 1.40507 0.266207 1.76536C0.103385 2.12564 0.01293 2.5146 1.46306e-05 2.90999V16.8578C-0.0289644 17.2568 0.0246504 17.6575 0.157487 18.0348C0.290324 18.412 0.499509 18.7575 0.771886 19.0497C1.04426 19.3419 1.37394 19.5743 1.74019 19.7324C2.10643 19.8905 2.50132 19.9709 2.90001 19.9685H7.50001C7.5735 19.9835 7.64943 19.9818 7.72216 19.9634C7.7949 19.9451 7.86259 19.9105 7.92021 19.8623C7.97783 19.8141 8.02391 19.7536 8.05504 19.6851C8.08616 19.6166 8.10153 19.542 8.10001 19.4667Z"
      fill="currentColor" />
  </g>
  <defs>
    <clipPath id="clip0_153_253">
      <rect width="20" height="20.0688" fill="currentColor" />
    </clipPath>
  </defs>
</svg>
