<svg width="23" height="13" viewBox="0 0 23 13" fill="none" xmlns="http://www.w3.org/2000/svg">
<path d="M0 1.70091C0 1.07907 0.42312 0.743769 1.26936 0.694997L4.5303 0.713287C4.74916 0.713287 4.89506 0.804734 4.96801 0.987628C5.30359 1.9021 5.67929 2.69159 6.09512 3.35611C6.51094 4.02062 7.05443 4.78573 7.72559 5.65143C7.78395 5.76116 7.87879 5.81603 8.0101 5.81603C8.11223 5.81603 8.19248 5.77335 8.25084 5.688L8.3165 5.48682L8.33838 2.32275C8.33838 2.10328 8.27638 1.95697 8.15236 1.88381C8.02834 1.81065 7.79854 1.75578 7.46296 1.7192C7.20034 1.68262 7.06902 1.5485 7.06902 1.31684C7.06902 1.26807 7.07632 1.23149 7.09091 1.2071C7.39731 0.41456 8.27273 0.0182894 9.71717 0.0182894L10.9428 0C11.4972 0 11.9568 0.115833 12.3215 0.347499C12.6863 0.579164 12.8687 0.944952 12.8687 1.44486V5.59656C12.9708 5.65752 13.0657 5.688 13.1532 5.688C13.3721 5.688 13.5617 5.57827 13.7222 5.35879C15.3272 3.48108 16.1953 2.22521 16.3266 1.59118C16.3266 1.57899 16.3412 1.5485 16.3704 1.49973C16.4725 1.31684 16.6403 1.15833 16.8737 1.02421C17.1072 0.890084 17.3114 0.798637 17.4865 0.749865C17.5449 0.72548 17.6106 0.713287 17.6835 0.713287H21.0758L21.2946 0.731576C21.5864 0.731576 21.8126 0.847409 21.9731 1.07907C22.0314 1.15223 22.0716 1.23149 22.0934 1.31684C22.1153 1.40219 22.1299 1.48754 22.1372 1.57289C22.1445 1.65824 22.1481 1.70701 22.1481 1.7192V1.84723C22.046 2.34714 21.787 2.88058 21.3712 3.44755C20.9554 4.01452 20.4265 4.62722 19.7845 5.28564C19.1425 5.94406 18.7413 6.3769 18.5808 6.58418C18.4495 6.7305 18.3838 6.86462 18.3838 6.98655C18.3838 7.0841 18.4422 7.19383 18.5589 7.31576L21.7542 10.681C21.9293 10.8761 22.0168 11.0895 22.0168 11.3211C22.0168 11.6016 21.8855 11.8332 21.6229 12.0161C21.3603 12.199 21.0466 12.3027 20.6818 12.3271L20.3098 12.3453H16.9832C16.9686 12.3453 16.9394 12.3484 16.8956 12.3545C16.8519 12.3606 16.8227 12.3636 16.8081 12.3636C16.4871 12.3636 16.188 12.2478 15.9108 12.0161C15.8086 11.9186 15.1229 11.1992 13.8535 9.85799C13.7806 9.77264 13.6785 9.69338 13.5471 9.62023C13.4888 9.81531 13.4122 10.0957 13.3173 10.4615C13.2225 10.8273 13.1532 11.0895 13.1094 11.248L13.0438 11.5589C12.8979 11.9857 12.5915 12.2417 12.1246 12.3271L11.8182 12.3453H9.6734C8.4624 12.3453 7.25505 11.882 6.05135 10.9554C4.84764 10.0287 3.76431 8.83073 2.80135 7.36148C1.83838 5.89224 0.941078 4.18218 0.109428 2.23131C0.0364759 2.0728 0 1.896 0 1.70091ZM13.1532 6.43787C12.8468 6.43787 12.5696 6.36776 12.3215 6.22754C12.0735 6.08732 11.9495 5.89528 11.9495 5.65143V1.44486C11.9495 1.201 11.8765 1.02725 11.7306 0.923615C11.5847 0.819975 11.3294 0.768155 10.9646 0.768155L9.71717 0.804734C9.08979 0.804734 8.6156 0.896181 8.29461 1.07907C8.93659 1.33513 9.25758 1.74969 9.25758 2.32275V5.54169C9.2284 5.84651 9.08249 6.09952 8.81987 6.3007C8.55724 6.50188 8.26543 6.60247 7.94445 6.60247C7.50673 6.60247 7.17116 6.42568 6.93771 6.07208C5.79966 4.63332 4.95342 3.26771 4.39899 1.97526L4.20202 1.49973L1.29125 1.48144C1.10157 1.48144 0.995791 1.49059 0.973906 1.50888C0.95202 1.52717 0.941078 1.57899 0.941078 1.66434C0.941078 1.77407 0.955668 1.8899 0.984849 2.01183L1.44444 3.03604C2.67003 5.68191 4.0014 7.7669 5.43855 9.29102C6.8757 10.8151 8.28732 11.5772 9.6734 11.5772H11.862C11.9495 11.5772 12.0152 11.5559 12.0589 11.5132C12.1027 11.4705 12.1392 11.3882 12.1684 11.2663L12.2121 11.0834L12.6279 9.47391C12.7447 9.25444 12.8468 9.10812 12.9343 9.03496C13.0948 8.90084 13.2845 8.83378 13.5034 8.83378C13.8535 8.83378 14.211 9.01058 14.5758 9.36417L16.436 11.3394C16.5528 11.4979 16.6768 11.5772 16.8081 11.5772H20.4192C20.8569 11.5772 21.0758 11.4857 21.0758 11.3029C21.0758 11.2419 21.0539 11.1809 21.0101 11.12L17.8367 7.80957C17.5887 7.55352 17.4646 7.27918 17.4646 6.98655C17.4646 6.69392 17.5814 6.41348 17.8148 6.14524C18.0045 5.90138 18.3729 5.49597 18.92 4.92899C19.4672 4.36202 19.945 3.83163 20.3535 3.33782C20.7621 2.844 21.032 2.39591 21.1633 1.99354L21.229 1.75578C21.2144 1.7314 21.2071 1.69177 21.2071 1.6369C21.2071 1.58203 21.1998 1.53631 21.1852 1.49973H17.7492C17.5303 1.57289 17.3552 1.68262 17.2239 1.82894L17.0926 2.17644C16.7278 3.01775 15.7722 4.3163 14.2256 6.07208C13.9192 6.31594 13.5617 6.43787 13.1532 6.43787Z" fill="#666666"/>
</svg>
