<svg viewBox="0 0 32.4644 34.3352" xmlns="http://www.w3.org/2000/svg" xmlns:xlink="http://www.w3.org/1999/xlink" width="32.464355" height="34.335205" fill="none" customFrame="#000000">
	<g id="Group 7">
		<g id="Group 5">
			<ellipse id="Ellipse 3" rx="1.087304" ry="1.085118" cx="21.6685333" cy="10.3298693" fill="rgb(255,255,255)" />
			<ellipse id="Ellipse 6" rx="1.087305" ry="1.085118" cx="10.7954731" cy="10.3298693" fill="rgb(255,255,255)" />
			<ellipse id="Ellipse 8" rx="1.087305" ry="1.085118" cx="10.7954731" cy="23.3512306" fill="rgb(255,255,255)" />
			<ellipse id="Ellipse 9" rx="1.087305" ry="1.085118" cx="16.232069" cy="25.5215187" fill="rgb(255,255,255)" />
			<ellipse id="Ellipse 7" rx="1.087305" ry="1.085119" cx="7.53359413" cy="16.7748165" fill="rgb(255,255,255)" />
			<ellipse id="Ellipse 4" rx="1.087305" ry="1.085119" cx="24.930418" cy="16.7748165" fill="rgb(255,255,255)" />
			<ellipse id="Ellipse 5" rx="1.087304" ry="1.085118" cx="21.6685333" cy="23.3512306" fill="rgb(255,255,255)" />
		</g>
		<path id="Subtract" d="M21.3858 28.0581C21.7942 27.8622 22.2869 27.9298 22.6029 28.2542L24.4287 30.1292C24.6963 30.4039 25.1378 30.4039 25.4054 30.1292L25.4054 30.1292C25.6631 29.8645 25.6631 29.4427 25.4054 29.1781L24.0486 27.7849C23.6227 27.3475 23.6871 26.6356 24.1464 26.2333C26.7881 23.9195 28.4644 20.4688 28.4644 16.6145C28.4644 9.6477 22.9878 4 16.2322 4C9.47653 4 4 9.6477 4 16.6145C4 20.4288 5.64164 23.8477 8.23602 26.1608C8.68874 26.5644 8.74924 27.2708 8.32609 27.7054L6.89192 29.1781C6.6342 29.4427 6.6342 29.8645 6.89192 30.1291L6.89192 30.1291C7.15949 30.4039 7.60099 30.4039 7.86857 30.1292L9.7482 28.199C10.0668 27.8718 10.5647 27.8061 10.9746 28.0076C12.5673 28.7907 14.3501 29.229 16.2322 29.229C18.0734 29.229 19.8196 28.8095 21.3858 28.0581ZM16.2322 27.8274C22.2372 27.8274 27.1052 22.8072 27.1052 16.6145C27.1052 10.4218 22.2372 5.40161 16.2322 5.40161C10.2272 5.40161 5.35913 10.4218 5.35913 16.6145C5.35913 22.8072 10.2272 27.8274 16.2322 27.8274ZM15.4726 16.298L15.4726 12.5001L15.4726 8.94092C15.4726 8.50942 15.8224 8.15963 16.2539 8.15963L16.2539 8.15963C16.6854 8.15963 17.0352 8.50942 17.0352 8.94092L17.0352 12.5001L17.0352 16.298L17.0352 16.8406L17.0352 17.1226C17.0352 17.5661 16.6756 17.9257 16.2321 17.9257L16.2321 17.9257L16.2321 17.9257C15.8126 17.9257 15.4726 17.5857 15.4726 17.1663L15.4726 16.8406L15.4726 16.298Z" fill="rgb(255,255,255)" fill-rule="evenodd" />
		<path id="Subtract" d="M22.6029 28.2542C22.2869 27.9298 21.7942 27.8622 21.3858 28.0581C19.8196 28.8095 18.0734 29.229 16.2322 29.229C14.3501 29.229 12.5673 28.7907 10.9746 28.0076C10.5647 27.8061 10.0668 27.8718 9.7482 28.199L7.86857 30.1292C7.60099 30.4039 7.15949 30.4039 6.89192 30.1291C6.76306 29.9968 6.69863 29.8252 6.69863 29.6536C6.69863 29.482 6.76306 29.3104 6.89192 29.1781L8.32609 27.7054C8.51956 27.5067 8.61193 27.2512 8.61193 26.9938C8.61193 26.6882 8.48175 26.3799 8.23602 26.1608C5.64164 23.8477 4 20.4288 4 16.6145C4 9.6477 9.47653 4 16.2322 4C22.9878 4 28.4644 9.6477 28.4644 16.6145C28.4644 20.4688 26.7881 23.9195 24.1464 26.2333C23.8958 26.4528 23.7628 26.7644 23.7628 27.0733C23.7628 27.3307 23.8551 27.5861 24.0486 27.7849L25.4054 29.1781C25.5342 29.3104 25.5987 29.482 25.5987 29.6536C25.5987 29.8252 25.5342 29.9968 25.4054 30.1292C25.1378 30.4039 24.6963 30.4039 24.4287 30.1292L22.6029 28.2542ZM16.2322 27.8274C22.2372 27.8274 27.1052 22.8072 27.1052 16.6145C27.1052 10.4218 22.2372 5.40161 16.2322 5.40161C10.2272 5.40161 5.35913 10.4218 5.35913 16.6145C5.35913 22.8072 10.2272 27.8274 16.2322 27.8274ZM15.4726 16.298L15.4726 8.94092C15.4726 8.50942 15.8224 8.15963 16.2539 8.15963C16.6854 8.15963 17.0352 8.50942 17.0352 8.94092L17.0352 17.1226C17.0352 17.5661 16.6756 17.9257 16.2321 17.9257C15.8126 17.9257 15.4726 17.5857 15.4726 17.1663L15.4726 16.298Z" fill="rgb(255,255,255)" fill-rule="evenodd" />
		<g id="Group 6">
			<rect id="Rectangle 12" width="4.000000" height="1.500000" x="0.000000" y="0.000000" fill="rgb(255,255,255)" transform="matrix(6.12323e-17,-1,1,6.12323e-17,15.4644,5)" />
			<rect id="Rectangle 13" width="15.500000" height="1.500000" x="8.464355" y="1.000000" rx="0.750000" fill="rgb(255,255,255)" />
		</g>
	</g>
</svg>
